# xmcd
#
# Track frame offsets:
#	150
#	11617
#	24273
#	41242
#	54245
#	64785
#	77669
#	90005
#	102216
#	115877
#	130461
#	141305
#	154881
#	165672
#	176607
#	189944
#	200614
#	213127
#
# Disc length: 3119
#
# Revision: 1
# Processed by: cddbd v1.5.1PL0 Copyright (c) Steve Scherf et al.
# Submitted via: ExactAudioCopy v0.90b2
# Normalized: r0:DSETVAR1
#
DISCID=e80c2d12
DTITLE=Various Artist - The Blues Box Disc 4
DYEAR=1999
DGENRE=Blues
TTITLE0=Big Joe Williams - Pearly Mae
TTITLE1=Mississippi Fred McDowell - Got to move
TTITLE2=Jimmy Witherspon With Jay McShann and his Orchestra - Skidrow blues
TTITLE3=Dr. Ross - Chicago breakdown
TTITLE4=Memphis Slim - How long
TTITLE5=Big Joe Williams - Scardie mama
TTITLE6=Jim Deberra - Take a little change
TTITLE7=Sonny Terry - Whoopin' the blues
TTITLE8=Mississippi Fred McDowell - Kokomo me baby
TTITLE9=Muddy Waters - Rock me
TTITLE10=Eskew Reeder - I waited too long
TTITLE11=Howlin' Wolf - My baby walked off
TTITLE12=Jimmy Reed - Baby what you want me to do
TTITLE13=Little Milton - Beggin' my baby
TTITLE14=Mississippi John Hurt - Ain't no telling
TTITLE15=James Cotton - My baby
TTITLE16=Champion Jack Dupree - Gin mill sal (Version of "Junker Blues")
TTITLE17=Brownie McGhee and Sonny Terry - Blues for the lowlands
EXTD=By: D. Rej.
EXTT0=
EXTT1=
EXTT2=
EXTT3=
EXTT4=
EXTT5=
EXTT6=
EXTT7=
EXTT8=
EXTT9=
EXTT10=
EXTT11=
EXTT12=
EXTT13=
EXTT14=
EXTT15=
EXTT16=
EXTT17=
PLAYORDER=
